<mxfile host="app.diagrams.net" modified="2022-12-14T04:24:18.978Z" agent="5.0 (Macintosh; Intel Mac OS X 10_15_7) AppleWebKit/537.36 (KHTML, like Gecko) Chrome/108.0.0.0 Safari/537.36" etag="ulM-C8gMQy-OI3Z1ZOCL" version="20.6.2" type="github">
  <diagram id="prtHgNgQTEPvFCAcTncT" name="Page-1">
    <mxGraphModel dx="1018" dy="593" grid="1" gridSize="10" guides="1" tooltips="1" connect="1" arrows="1" fold="1" page="1" pageScale="1" pageWidth="827" pageHeight="1169" math="0" shadow="0">
      <root>
        <mxCell id="0" />
        <mxCell id="1" parent="0" />
        <mxCell id="uaZEwYvG95itgI6iKc0A-8" value="海外站(f_ttsi_inter_site)" style="swimlane;whiteSpace=wrap;html=1;" parent="1" vertex="1">
          <mxGeometry x="40" y="40" width="220" height="540" as="geometry" />
        </mxCell>
        <mxCell id="e0zCCR4zzrkAYKbx5_2p-14" style="edgeStyle=orthogonalEdgeStyle;rounded=0;orthogonalLoop=1;jettySize=auto;html=1;entryX=0.5;entryY=0;entryDx=0;entryDy=0;startArrow=none;" edge="1" parent="uaZEwYvG95itgI6iKc0A-8" source="e0zCCR4zzrkAYKbx5_2p-15" target="e0zCCR4zzrkAYKbx5_2p-13">
          <mxGeometry relative="1" as="geometry" />
        </mxCell>
        <mxCell id="e0zCCR4zzrkAYKbx5_2p-1" value="&lt;h5 style=&quot;box-sizing: border-box; break-after: avoid-page; break-inside: avoid; orphans: 4; font-size: 1em; margin-top: 1rem; margin-bottom: 1rem; position: relative; line-height: 1.4; cursor: text; caret-color: rgb(51, 51, 51); color: rgb(51, 51, 51); font-family: &amp;quot;Open Sans&amp;quot;, &amp;quot;Clear Sans&amp;quot;, &amp;quot;Helvetica Neue&amp;quot;, Helvetica, Arial, &amp;quot;Segoe UI Emoji&amp;quot;, sans-serif; text-align: start; background-color: rgb(255, 255, 255);&quot; class=&quot;md-end-block md-heading md-focus&quot;&gt;&lt;span style=&quot;box-sizing: border-box;&quot; class=&quot;md-plain md-expand&quot;&gt;search&lt;/span&gt;&lt;/h5&gt;" style="rounded=1;whiteSpace=wrap;html=1;align=center;" vertex="1" parent="uaZEwYvG95itgI6iKc0A-8">
          <mxGeometry x="45" y="40" width="120" height="60" as="geometry" />
        </mxCell>
        <mxCell id="e0zCCR4zzrkAYKbx5_2p-57" style="edgeStyle=orthogonalEdgeStyle;rounded=0;orthogonalLoop=1;jettySize=auto;html=1;entryX=0.5;entryY=0;entryDx=0;entryDy=0;startArrow=none;" edge="1" parent="uaZEwYvG95itgI6iKc0A-8" source="e0zCCR4zzrkAYKbx5_2p-52" target="e0zCCR4zzrkAYKbx5_2p-51">
          <mxGeometry relative="1" as="geometry" />
        </mxCell>
        <mxCell id="e0zCCR4zzrkAYKbx5_2p-13" value="&lt;h5 style=&quot;box-sizing: border-box; break-after: avoid-page; break-inside: avoid; orphans: 4; font-size: 1em; margin-top: 1rem; margin-bottom: 1rem; position: relative; line-height: 1.4; cursor: text; caret-color: rgb(51, 51, 51); color: rgb(51, 51, 51); font-family: &amp;quot;Open Sans&amp;quot;, &amp;quot;Clear Sans&amp;quot;, &amp;quot;Helvetica Neue&amp;quot;, Helvetica, Arial, &amp;quot;Segoe UI Emoji&amp;quot;, sans-serif; text-align: start; background-color: rgb(255, 255, 255);&quot; class=&quot;md-end-block md-heading md-focus&quot;&gt;&lt;span style=&quot;box-sizing: border-box;&quot; class=&quot;md-plain md-expand&quot;&gt;booking&lt;/span&gt;&lt;/h5&gt;" style="rounded=1;whiteSpace=wrap;html=1;align=center;" vertex="1" parent="uaZEwYvG95itgI6iKc0A-8">
          <mxGeometry x="45" y="190" width="120" height="100" as="geometry" />
        </mxCell>
        <mxCell id="e0zCCR4zzrkAYKbx5_2p-20" value="flightCode" style="text;html=1;align=center;verticalAlign=middle;resizable=0;points=[];autosize=1;strokeColor=none;fillColor=none;" vertex="1" parent="uaZEwYvG95itgI6iKc0A-8">
          <mxGeometry x="170" y="160" width="80" height="30" as="geometry" />
        </mxCell>
        <mxCell id="e0zCCR4zzrkAYKbx5_2p-15" value="flightCode&lt;br&gt;" style="text;html=1;align=center;verticalAlign=middle;resizable=0;points=[];autosize=1;strokeColor=none;fillColor=none;" vertex="1" parent="uaZEwYvG95itgI6iKc0A-8">
          <mxGeometry x="65" y="140" width="80" height="30" as="geometry" />
        </mxCell>
        <mxCell id="e0zCCR4zzrkAYKbx5_2p-23" value="" style="edgeStyle=orthogonalEdgeStyle;rounded=0;orthogonalLoop=1;jettySize=auto;html=1;entryX=0.5;entryY=0;entryDx=0;entryDy=0;endArrow=none;" edge="1" parent="uaZEwYvG95itgI6iKc0A-8" source="e0zCCR4zzrkAYKbx5_2p-1" target="e0zCCR4zzrkAYKbx5_2p-15">
          <mxGeometry relative="1" as="geometry">
            <mxPoint x="145" y="140" as="sourcePoint" />
            <mxPoint x="145" y="250" as="targetPoint" />
          </mxGeometry>
        </mxCell>
        <mxCell id="e0zCCR4zzrkAYKbx5_2p-51" value="order" style="rounded=1;whiteSpace=wrap;html=1;" vertex="1" parent="uaZEwYvG95itgI6iKc0A-8">
          <mxGeometry x="45" y="390" width="120" height="60" as="geometry" />
        </mxCell>
        <mxCell id="e0zCCR4zzrkAYKbx5_2p-52" value="BookingTagKey" style="text;html=1;align=center;verticalAlign=middle;resizable=0;points=[];autosize=1;strokeColor=none;fillColor=none;" vertex="1" parent="uaZEwYvG95itgI6iKc0A-8">
          <mxGeometry x="50" y="330" width="110" height="30" as="geometry" />
        </mxCell>
        <mxCell id="e0zCCR4zzrkAYKbx5_2p-58" value="" style="edgeStyle=orthogonalEdgeStyle;rounded=0;orthogonalLoop=1;jettySize=auto;html=1;entryX=0.5;entryY=0;entryDx=0;entryDy=0;endArrow=none;" edge="1" parent="uaZEwYvG95itgI6iKc0A-8" source="e0zCCR4zzrkAYKbx5_2p-13" target="e0zCCR4zzrkAYKbx5_2p-52">
          <mxGeometry relative="1" as="geometry">
            <mxPoint x="145" y="330" as="sourcePoint" />
            <mxPoint x="145" y="430" as="targetPoint" />
          </mxGeometry>
        </mxCell>
        <mxCell id="uaZEwYvG95itgI6iKc0A-9" value="分销(f_b2b_opensupplier_nts)" style="swimlane;whiteSpace=wrap;html=1;" parent="1" vertex="1">
          <mxGeometry x="260" y="40" width="220" height="540" as="geometry" />
        </mxCell>
        <mxCell id="e0zCCR4zzrkAYKbx5_2p-3" value="&lt;h5 style=&quot;box-sizing: border-box; break-after: avoid-page; break-inside: avoid; orphans: 4; font-size: 1em; margin-top: 1rem; margin-bottom: 1rem; position: relative; line-height: 1.4; cursor: text; caret-color: rgb(51, 51, 51); color: rgb(51, 51, 51); font-family: &amp;quot;Open Sans&amp;quot;, &amp;quot;Clear Sans&amp;quot;, &amp;quot;Helvetica Neue&amp;quot;, Helvetica, Arial, &amp;quot;Segoe UI Emoji&amp;quot;, sans-serif; text-align: start; background-color: rgb(255, 255, 255);&quot; class=&quot;md-end-block md-heading md-focus&quot;&gt;&lt;span style=&quot;box-sizing: border-box;&quot; class=&quot;md-plain md-expand&quot;&gt;searchFlight&lt;/span&gt;&lt;/h5&gt;" style="rounded=1;whiteSpace=wrap;html=1;" vertex="1" parent="uaZEwYvG95itgI6iKc0A-9">
          <mxGeometry x="50" y="40" width="120" height="60" as="geometry" />
        </mxCell>
        <mxCell id="e0zCCR4zzrkAYKbx5_2p-16" value="&lt;h5 style=&quot;box-sizing: border-box; break-after: avoid-page; break-inside: avoid; orphans: 4; font-size: 1em; margin-top: 1rem; margin-bottom: 1rem; position: relative; line-height: 1.4; cursor: text; caret-color: rgb(51, 51, 51); color: rgb(51, 51, 51); font-family: &amp;quot;Open Sans&amp;quot;, &amp;quot;Clear Sans&amp;quot;, &amp;quot;Helvetica Neue&amp;quot;, Helvetica, Arial, &amp;quot;Segoe UI Emoji&amp;quot;, sans-serif; text-align: start; background-color: rgb(255, 255, 255);&quot; class=&quot;md-end-block md-heading md-focus&quot;&gt;&lt;span style=&quot;box-sizing: border-box;&quot; class=&quot;md-plain md-expand&quot;&gt;OTA&lt;/span&gt;&lt;/h5&gt;" style="rounded=1;whiteSpace=wrap;html=1;" vertex="1" parent="uaZEwYvG95itgI6iKc0A-9">
          <mxGeometry x="50" y="160" width="120" height="60" as="geometry" />
        </mxCell>
        <mxCell id="e0zCCR4zzrkAYKbx5_2p-35" value="flightCode" style="text;html=1;align=center;verticalAlign=middle;resizable=0;points=[];autosize=1;strokeColor=none;fillColor=none;" vertex="1" parent="uaZEwYvG95itgI6iKc0A-9">
          <mxGeometry x="-40" y="90" width="80" height="30" as="geometry" />
        </mxCell>
        <mxCell id="e0zCCR4zzrkAYKbx5_2p-36" value="&lt;h5 style=&quot;box-sizing: border-box; break-after: avoid-page; break-inside: avoid; orphans: 4; font-size: 1em; margin-top: 1rem; margin-bottom: 1rem; position: relative; line-height: 1.4; cursor: text; caret-color: rgb(51, 51, 51); color: rgb(51, 51, 51); font-family: &amp;quot;Open Sans&amp;quot;, &amp;quot;Clear Sans&amp;quot;, &amp;quot;Helvetica Neue&amp;quot;, Helvetica, Arial, &amp;quot;Segoe UI Emoji&amp;quot;, sans-serif; text-align: start; background-color: rgb(255, 255, 255);&quot; class=&quot;md-end-block md-heading md-focus&quot;&gt;&lt;span style=&quot;box-sizing: border-box;&quot; class=&quot;md-plain md-expand&quot;&gt;booking&lt;/span&gt;&lt;/h5&gt;" style="rounded=1;whiteSpace=wrap;html=1;" vertex="1" parent="uaZEwYvG95itgI6iKc0A-9">
          <mxGeometry x="50" y="250" width="120" height="60" as="geometry" />
        </mxCell>
        <mxCell id="e0zCCR4zzrkAYKbx5_2p-37" value="priceKey" style="text;html=1;align=center;verticalAlign=middle;resizable=0;points=[];autosize=1;strokeColor=none;fillColor=none;" vertex="1" parent="uaZEwYvG95itgI6iKc0A-9">
          <mxGeometry x="-35" y="220" width="70" height="30" as="geometry" />
        </mxCell>
        <mxCell id="e0zCCR4zzrkAYKbx5_2p-42" value="BookingTagKey" style="text;html=1;align=center;verticalAlign=middle;resizable=0;points=[];autosize=1;strokeColor=none;fillColor=none;" vertex="1" parent="uaZEwYvG95itgI6iKc0A-9">
          <mxGeometry x="-60" y="280" width="110" height="30" as="geometry" />
        </mxCell>
        <mxCell id="e0zCCR4zzrkAYKbx5_2p-62" value="BookingTagKey" style="text;html=1;align=center;verticalAlign=middle;resizable=0;points=[];autosize=1;strokeColor=none;fillColor=none;" vertex="1" parent="uaZEwYvG95itgI6iKc0A-9">
          <mxGeometry x="160" y="290" width="110" height="30" as="geometry" />
        </mxCell>
        <mxCell id="uaZEwYvG95itgI6iKc0A-10" value="Parent" style="swimlane;whiteSpace=wrap;html=1;" parent="1" vertex="1">
          <mxGeometry x="480" y="40" width="200" height="540" as="geometry" />
        </mxCell>
        <mxCell id="e0zCCR4zzrkAYKbx5_2p-8" value="&lt;h5 style=&quot;box-sizing: border-box; break-after: avoid-page; break-inside: avoid; orphans: 4; font-size: 1em; margin-top: 1rem; margin-bottom: 1rem; position: relative; line-height: 1.4; cursor: text; caret-color: rgb(51, 51, 51); color: rgb(51, 51, 51); font-family: &amp;quot;Open Sans&amp;quot;, &amp;quot;Clear Sans&amp;quot;, &amp;quot;Helvetica Neue&amp;quot;, Helvetica, Arial, &amp;quot;Segoe UI Emoji&amp;quot;, sans-serif; text-align: start; background-color: rgb(255, 255, 255);&quot; class=&quot;md-end-block md-heading md-focus&quot;&gt;&lt;span style=&quot;box-sizing: border-box;&quot; class=&quot;md-plain md-expand&quot;&gt;POST&lt;/span&gt;&lt;/h5&gt;" style="rounded=1;whiteSpace=wrap;html=1;" vertex="1" parent="uaZEwYvG95itgI6iKc0A-10">
          <mxGeometry x="40" y="40" width="120" height="60" as="geometry" />
        </mxCell>
        <mxCell id="e0zCCR4zzrkAYKbx5_2p-60" value="开发平台" style="rounded=1;whiteSpace=wrap;html=1;" vertex="1" parent="uaZEwYvG95itgI6iKc0A-10">
          <mxGeometry x="40" y="250" width="120" height="60" as="geometry" />
        </mxCell>
        <mxCell id="e0zCCR4zzrkAYKbx5_2p-5" style="edgeStyle=orthogonalEdgeStyle;rounded=0;orthogonalLoop=1;jettySize=auto;html=1;" edge="1" parent="1" source="e0zCCR4zzrkAYKbx5_2p-1" target="e0zCCR4zzrkAYKbx5_2p-3">
          <mxGeometry relative="1" as="geometry">
            <mxPoint x="300" y="110" as="targetPoint" />
            <Array as="points">
              <mxPoint x="270" y="100" />
              <mxPoint x="270" y="100" />
            </Array>
          </mxGeometry>
        </mxCell>
        <mxCell id="e0zCCR4zzrkAYKbx5_2p-9" style="edgeStyle=orthogonalEdgeStyle;rounded=0;orthogonalLoop=1;jettySize=auto;html=1;exitX=0;exitY=0.75;exitDx=0;exitDy=0;entryX=1;entryY=0.75;entryDx=0;entryDy=0;" edge="1" parent="1" source="e0zCCR4zzrkAYKbx5_2p-8" target="e0zCCR4zzrkAYKbx5_2p-3">
          <mxGeometry relative="1" as="geometry" />
        </mxCell>
        <mxCell id="e0zCCR4zzrkAYKbx5_2p-10" style="edgeStyle=orthogonalEdgeStyle;rounded=0;orthogonalLoop=1;jettySize=auto;html=1;exitX=1;exitY=0.25;exitDx=0;exitDy=0;entryX=0;entryY=0.25;entryDx=0;entryDy=0;" edge="1" parent="1" source="e0zCCR4zzrkAYKbx5_2p-3" target="e0zCCR4zzrkAYKbx5_2p-8">
          <mxGeometry relative="1" as="geometry" />
        </mxCell>
        <mxCell id="e0zCCR4zzrkAYKbx5_2p-12" style="edgeStyle=orthogonalEdgeStyle;rounded=0;orthogonalLoop=1;jettySize=auto;html=1;exitX=0;exitY=0.75;exitDx=0;exitDy=0;entryX=1;entryY=0.75;entryDx=0;entryDy=0;" edge="1" parent="1" source="e0zCCR4zzrkAYKbx5_2p-3" target="e0zCCR4zzrkAYKbx5_2p-1">
          <mxGeometry relative="1" as="geometry" />
        </mxCell>
        <mxCell id="e0zCCR4zzrkAYKbx5_2p-17" style="edgeStyle=orthogonalEdgeStyle;rounded=0;orthogonalLoop=1;jettySize=auto;html=1;entryX=0.25;entryY=1;entryDx=0;entryDy=0;" edge="1" parent="1" source="e0zCCR4zzrkAYKbx5_2p-16" target="e0zCCR4zzrkAYKbx5_2p-8">
          <mxGeometry relative="1" as="geometry">
            <Array as="points">
              <mxPoint x="550" y="210" />
            </Array>
          </mxGeometry>
        </mxCell>
        <mxCell id="e0zCCR4zzrkAYKbx5_2p-30" style="edgeStyle=orthogonalEdgeStyle;rounded=0;orthogonalLoop=1;jettySize=auto;html=1;exitX=0.75;exitY=1;exitDx=0;exitDy=0;entryX=1;entryY=0.5;entryDx=0;entryDy=0;" edge="1" parent="1" source="e0zCCR4zzrkAYKbx5_2p-8" target="e0zCCR4zzrkAYKbx5_2p-16">
          <mxGeometry relative="1" as="geometry" />
        </mxCell>
        <mxCell id="e0zCCR4zzrkAYKbx5_2p-40" style="edgeStyle=orthogonalEdgeStyle;rounded=0;orthogonalLoop=1;jettySize=auto;html=1;exitX=1;exitY=0.75;exitDx=0;exitDy=0;" edge="1" parent="1" source="e0zCCR4zzrkAYKbx5_2p-13">
          <mxGeometry relative="1" as="geometry">
            <mxPoint x="310" y="300" as="targetPoint" />
            <Array as="points">
              <mxPoint x="310" y="300" />
            </Array>
          </mxGeometry>
        </mxCell>
        <mxCell id="e0zCCR4zzrkAYKbx5_2p-45" style="edgeStyle=orthogonalEdgeStyle;rounded=0;orthogonalLoop=1;jettySize=auto;html=1;exitX=0.925;exitY=0;exitDx=0;exitDy=0;exitPerimeter=0;" edge="1" parent="1" source="e0zCCR4zzrkAYKbx5_2p-13" target="e0zCCR4zzrkAYKbx5_2p-16">
          <mxGeometry relative="1" as="geometry">
            <Array as="points">
              <mxPoint x="230" y="230" />
              <mxPoint x="230" y="230" />
            </Array>
          </mxGeometry>
        </mxCell>
        <mxCell id="e0zCCR4zzrkAYKbx5_2p-46" style="edgeStyle=orthogonalEdgeStyle;rounded=0;orthogonalLoop=1;jettySize=auto;html=1;exitX=0;exitY=0.75;exitDx=0;exitDy=0;entryX=1;entryY=0.15;entryDx=0;entryDy=0;entryPerimeter=0;" edge="1" parent="1" source="e0zCCR4zzrkAYKbx5_2p-16" target="e0zCCR4zzrkAYKbx5_2p-13">
          <mxGeometry relative="1" as="geometry" />
        </mxCell>
        <mxCell id="e0zCCR4zzrkAYKbx5_2p-50" style="edgeStyle=orthogonalEdgeStyle;rounded=0;orthogonalLoop=1;jettySize=auto;html=1;entryX=0.958;entryY=0.9;entryDx=0;entryDy=0;entryPerimeter=0;" edge="1" parent="1" source="e0zCCR4zzrkAYKbx5_2p-36" target="e0zCCR4zzrkAYKbx5_2p-13">
          <mxGeometry relative="1" as="geometry" />
        </mxCell>
        <mxCell id="e0zCCR4zzrkAYKbx5_2p-64" style="edgeStyle=orthogonalEdgeStyle;rounded=0;orthogonalLoop=1;jettySize=auto;html=1;exitX=1;exitY=0.25;exitDx=0;exitDy=0;entryX=0;entryY=0.25;entryDx=0;entryDy=0;" edge="1" parent="1" source="e0zCCR4zzrkAYKbx5_2p-36" target="e0zCCR4zzrkAYKbx5_2p-60">
          <mxGeometry relative="1" as="geometry" />
        </mxCell>
        <mxCell id="e0zCCR4zzrkAYKbx5_2p-65" style="edgeStyle=orthogonalEdgeStyle;rounded=0;orthogonalLoop=1;jettySize=auto;html=1;exitX=0;exitY=0.75;exitDx=0;exitDy=0;entryX=1;entryY=0.75;entryDx=0;entryDy=0;" edge="1" parent="1" source="e0zCCR4zzrkAYKbx5_2p-60" target="e0zCCR4zzrkAYKbx5_2p-36">
          <mxGeometry relative="1" as="geometry" />
        </mxCell>
      </root>
    </mxGraphModel>
  </diagram>
</mxfile>
